{"asset":{"version":"2.0","generator":"Blockbench 3.7.5 glTF exporter"},"scenes":[{"nodes":[4,8,11,13,18],"name":"blockbench_export"}],"scene":0,"nodes":[{"rotation":[-0.08715574274765817,0,0,0.9961946980917455],"translation":[-5.5,5,-4.75],"name":"57c7284f-d1ec-718b-18ca-29fc8a2d67fd","mesh":0},{"rotation":[-0.21643961393810288,0,0,0.9762960071199334],"translation":[-5.5,5.25,-1.75],"name":"43a3be9b-dbbd-6a0f-5cc5-f04a139c7b31","mesh":1},{"rotation":[-0.23768589232617307,0,0,0.9713420698132614],"translation":[-2.5,5.25,-4.5],"name":"cd807a05-2a07-3544-db5e-b8543595a2d8","mesh":2},{"rotation":[-0.3624380382837016,0,0,0.9320078692827986],"translation":[-2.5,5.75,-1.75],"name":"28002c74-af04-fcdf-a7af-e9a9767de6b3","mesh":3},{"translation":[4,4,3],"name":"e_2","children":[0,1,2,3]},{"translation":[0,2,-1],"name":"14b5f392-697a-8c83-e388-1fec67fd1f27","mesh":4},{"translation":[0,17,0],"name":"2e182ac5-4542-c939-de2b-e2d191ae3c8b","mesh":5},{"translation":[0,2,-1],"name":"a2b3bef2-5794-9e07-d0ff-43180bb422f0","mesh":6},{"translation":[0,4,0],"name":"e_1","children":[5,6,7]},{"translation":[0,2,-1],"name":"d6d1c1bc-faa9-dde9-ebfd-317a481ab7d1","mesh":7},{"translation":[0,17,0],"name":"ffe51ead-2cc2-4958-b179-6e2396816839","mesh":8},{"translation":[0,4,0],"name":"bone3","children":[9,10]},{"translation":[0,2,-1],"name":"5b643aaf-53c7-3dec-7a24-1900a79955c9","mesh":9},{"translation":[0,4,0],"name":"bone2","children":[12]},{"rotation":[-0.08715574274765817,0,0,0.9961946980917455],"translation":[-5.5,5,-4.75],"name":"1eb63dd7-bac8-251e-e01d-e65370eac996","mesh":10},{"rotation":[-0.23768589232617307,0,0,0.9713420698132614],"translation":[-2.5,5.25,-4.5],"name":"afb529e2-ab08-9e5e-c9f2-1d8dfd279692","mesh":11},{"rotation":[-0.3624380382837016,0,0,0.9320078692827986],"translation":[-2.5,5.75,-1.75],"name":"ef78f54b-43d6-7543-fd4a-c4c99d6acdd6","mesh":12},{"rotation":[-0.21643961393810288,0,0,0.9762960071199334],"translation":[-5.5,5.25,-1.75],"name":"352b7afa-ab3b-0c03-2b64-4351069a748e","mesh":13},{"translation":[4,4,3],"name":"bone","children":[14,15,16,17]}],"bufferViews":[{"buffer":0,"byteOffset":0,"byteLength":432,"target":34962,"byteStride":12},{"buffer":0,"byteOffset":432,"byteLength":432,"target":34962,"byteStride":12},{"buffer":0,"byteOffset":864,"byteLength":288,"target":34962,"byteStride":8},{"buffer":0,"byteOffset":1152,"byteLength":432,"target":34962,"byteStride":12},{"buffer":0,"byteOffset":1584,"byteLength":432,"target":34962,"byteStride":12},{"buffer":0,"byteOffset":2016,"byteLength":288,"target":34962,"byteStride":8},{"buffer":0,"byteOffset":2304,"byteLength":432,"target":34962,"byteStride":12},{"buffer":0,"byteOffset":2736,"byteLength":432,"target":34962,"byteStride":12},{"buffer":0,"byteOffset":3168,"byteLength":288,"target":34962,"byteStride":8},{"buffer":0,"byteOffset":3456,"byteLength":432,"target":34962,"byteStride":12},{"buffer":0,"byteOffset":3888,"byteLength":432,"target":34962,"byteStride":12},{"buffer":0,"byteOffset":4320,"byteLength":288,"target":34962,"byteStride":8},{"buffer":0,"byteOffset":4608,"byteLength":432,"target":34962,"byteStride":12},{"buffer":0,"byteOffset":5040,"byteLength":432,"target":34962,"byteStride":12},{"buffer":0,"byteOffset":5472,"byteLength":288,"target":34962,"byteStride":8},{"buffer":0,"byteOffset":5760,"byteLength":432,"target":34962,"byteStride":12},{"buffer":0,"byteOffset":6192,"byteLength":432,"target":34962,"byteStride":12},{"buffer":0,"byteOffset":6624,"byteLength":288,"target":34962,"byteStride":8},{"buffer":0,"byteOffset":6912,"byteLength":432,"target":34962,"byteStride":12},{"buffer":0,"byteOffset":7344,"byteLength":432,"target":34962,"byteStride":12},{"buffer":0,"byteOffset":7776,"byteLength":288,"target":34962,"byteStride":8},{"buffer":0,"byteOffset":8064,"byteLength":432,"target":34962,"byteStride":12},{"buffer":0,"byteOffset":8496,"byteLength":432,"target":34962,"byteStride":12},{"buffer":0,"byteOffset":8928,"byteLength":288,"target":34962,"byteStride":8},{"buffer":0,"byteOffset":9216,"byteLength":432,"target":34962,"byteStride":12},{"buffer":0,"byteOffset":9648,"byteLength":432,"target":34962,"byteStride":12},{"buffer":0,"byteOffset":10080,"byteLength":288,"target":34962,"byteStride":8},{"buffer":0,"byteOffset":10368,"byteLength":432,"target":34962,"byteStride":12},{"buffer":0,"byteOffset":10800,"byteLength":432,"target":34962,"byteStride":12},{"buffer":0,"byteOffset":11232,"byteLength":288,"target":34962,"byteStride":8},{"buffer":0,"byteOffset":11520,"byteLength":432,"target":34962,"byteStride":12},{"buffer":0,"byteOffset":11952,"byteLength":432,"target":34962,"byteStride":12},{"buffer":0,"byteOffset":12384,"byteLength":288,"target":34962,"byteStride":8},{"buffer":0,"byteOffset":12672,"byteLength":432,"target":34962,"byteStride":12},{"buffer":0,"byteOffset":13104,"byteLength":432,"target":34962,"byteStride":12},{"buffer":0,"byteOffset":13536,"byteLength":288,"target":34962,"byteStride":8},{"buffer":0,"byteOffset":13824,"byteLength":432,"target":34962,"byteStride":12},{"buffer":0,"byteOffset":14256,"byteLength":432,"target":34962,"byteStride":12},{"buffer":0,"byteOffset":14688,"byteLength":288,"target":34962,"byteStride":8},{"buffer":0,"byteOffset":14976,"byteLength":432,"target":34962,"byteStride":12},{"buffer":0,"byteOffset":15408,"byteLength":432,"target":34962,"byteStride":12},{"buffer":0,"byteOffset":15840,"byteLength":288,"target":34962,"byteStride":8}],"buffers":[{"byteLength":16128,"uri":"data:application/octet-stream;base64,"}],"accessors":[{"bufferView":0,"componentType":5126,"count":36,"max":[0.699999988079071,1.2000000476837158,0.699999988079071],"min":[-0.699999988079071,-11.199999809265137,-0.699999988079071],"type":"VEC3"},{"bufferView":1,"componentType":5126,"count":36,"max":[1,1,1],"min":[-1,-1,-1],"type":"VEC3"},{"bufferView":2,"componentType":5126,"count":36,"max":[0.140380859375,0.359130859375],"min":[0.015869140625,0.125244140625],"type":"VEC2"},{"bufferView":3,"componentType":5126,"count":36,"max":[0.699999988079071,1.2000000476837158,0.699999988079071],"min":[-0.699999988079071,-11.199999809265137,-0.699999988079071],"type":"VEC3"},{"bufferView":4,"componentType":5126,"count":36,"max":[1,1,1],"min":[-1,-1,-1],"type":"VEC3"},{"bufferView":5,"componentType":5126,"count":36,"max":[0.140380859375,0.359130859375],"min":[0.015869140625,0.125244140625],"type":"VEC2"},{"bufferView":6,"componentType":5126,"count":36,"max":[0.699999988079071,1.2000000476837158,0.699999988079071],"min":[-0.699999988079071,-11.199999809265137,-0.699999988079071],"type":"VEC3"},{"bufferView":7,"componentType":5126,"count":36,"max":[1,1,1],"min":[-1,-1,-1],"type":"VEC3"},{"bufferView":8,"componentType":5126,"count":36,"max":[0.140380859375,0.359130859375],"min":[0.015869140625,0.125244140625],"type":"VEC2"},{"bufferView":9,"componentType":5126,"count":36,"max":[0.699999988079071,1.2000000476837158,0.699999988079071],"min":[-0.699999988079071,-11.199999809265137,-0.699999988079071],"type":"VEC3"},{"bufferView":10,"componentType":5126,"count":36,"max":[1,1,1],"min":[-1,-1,-1],"type":"VEC3"},{"bufferView":11,"componentType":5126,"count":36,"max":[0.140380859375,0.359130859375],"min":[0.015869140625,0.125244140625],"type":"VEC2"},{"bufferView":12,"componentType":5126,"count":36,"max":[4,20,4],"min":[-4,7,-3],"type":"VEC3"},{"bufferView":13,"componentType":5126,"count":36,"max":[1,1,1],"min":[-1,-1,-1],"type":"VEC3"},{"bufferView":14,"componentType":5126,"count":36,"max":[0.468505859375,0.999755859375],"min":[0.000244140625,0.687744140625],"type":"VEC2"},{"bufferView":15,"componentType":5126,"count":36,"max":[8,4,0.0010000000474974513],"min":[-8,-4,0],"type":"VEC3"},{"bufferView":16,"componentType":5126,"count":36,"max":[1,1,1],"min":[-1,-1,-1],"type":"VEC3"},{"bufferView":17,"componentType":5126,"count":36,"max":[0.499755859375,0.687744140625],"min":[-0.000244140625,0.562744140625],"type":"VEC2"},{"bufferView":18,"componentType":5126,"count":36,"max":[3,7,3],"min":[-3,4,-2],"type":"VEC3"},{"bufferView":19,"componentType":5126,"count":36,"max":[1,1,1],"min":[-1,-1,-1],"type":"VEC3"},{"bufferView":20,"componentType":5126,"count":36,"max":[0.765380859375,0.577880859375],"min":[0.422119140625,0.453369140625],"type":"VEC2"},{"bufferView":21,"componentType":5126,"count":36,"max":[4,20,4],"min":[-4,7,-3],"type":"VEC3"},{"bufferView":22,"componentType":5126,"count":36,"max":[1,1,1],"min":[-1,-1,-1],"type":"VEC3"},{"bufferView":23,"componentType":5126,"count":36,"max":[0.468505859375,0.999755859375],"min":[0.000244140625,0.687744140625],"type":"VEC2"},{"bufferView":24,"componentType":5126,"count":36,"max":[8,4,0.0010000000474974513],"min":[-8,-4,0],"type":"VEC3"},{"bufferView":25,"componentType":5126,"count":36,"max":[1,1,1],"min":[-1,-1,-1],"type":"VEC3"},{"bufferView":26,"componentType":5126,"count":36,"max":[0.499755859375,0.687744140625],"min":[-0.000244140625,0.562744140625],"type":"VEC2"},{"bufferView":27,"componentType":5126,"count":36,"max":[3,7,3],"min":[-3,4,-2],"type":"VEC3"},{"bufferView":28,"componentType":5126,"count":36,"max":[1,1,1],"min":[-1,-1,-1],"type":"VEC3"},{"bufferView":29,"componentType":5126,"count":36,"max":[0.765380859375,0.577880859375],"min":[0.422119140625,0.453369140625],"type":"VEC2"},{"bufferView":30,"componentType":5126,"count":36,"max":[0.699999988079071,1.2000000476837158,0.699999988079071],"min":[-0.699999988079071,-11.199999809265137,-0.699999988079071],"type":"VEC3"},{"bufferView":31,"componentType":5126,"count":36,"max":[1,1,1],"min":[-1,-1,-1],"type":"VEC3"},{"bufferView":32,"componentType":5126,"count":36,"max":[0.140380859375,0.359130859375],"min":[0.015869140625,0.125244140625],"type":"VEC2"},{"bufferView":33,"componentType":5126,"count":36,"max":[0.699999988079071,1.2000000476837158,0.699999988079071],"min":[-0.699999988079071,-11.199999809265137,-0.699999988079071],"type":"VEC3"},{"bufferView":34,"componentType":5126,"count":36,"max":[1,1,1],"min":[-1,-1,-1],"type":"VEC3"},{"bufferView":35,"componentType":5126,"count":36,"max":[0.140380859375,0.359130859375],"min":[0.015869140625,0.125244140625],"type":"VEC2"},{"bufferView":36,"componentType":5126,"count":36,"max":[0.699999988079071,1.2000000476837158,0.699999988079071],"min":[-0.699999988079071,-11.199999809265137,-0.699999988079071],"type":"VEC3"},{"bufferView":37,"componentType":5126,"count":36,"max":[1,1,1],"min":[-1,-1,-1],"type":"VEC3"},{"bufferView":38,"componentType":5126,"count":36,"max":[0.140380859375,0.359130859375],"min":[0.015869140625,0.125244140625],"type":"VEC2"},{"bufferView":39,"componentType":5126,"count":36,"max":[0.699999988079071,1.2000000476837158,0.699999988079071],"min":[-0.699999988079071,-11.199999809265137,-0.699999988079071],"type":"VEC3"},{"bufferView":40,"componentType":5126,"count":36,"max":[1,1,1],"min":[-1,-1,-1],"type":"VEC3"},{"bufferView":41,"componentType":5126,"count":36,"max":[0.140380859375,0.359130859375],"min":[0.015869140625,0.125244140625],"type":"VEC2"}],"materials":[{"pbrMetallicRoughness":{"metallicFactor":0,"roughnessFactor":1,"baseColorTexture":{"index":0}},"alphaMode":"MASK","alphaCutoff":0.05,"doubleSided":true,"name":"chorus_squid_e"},{"pbrMetallicRoughness":{"metallicFactor":0,"roughnessFactor":1,"baseColorTexture":{"index":1}},"alphaMode":"MASK","alphaCutoff":0.05,"doubleSided":true,"name":"chorus_squid_1.png"}],"textures":[{"sampler":0,"source":0,"name":"chorus_squid_e"},{"sampler":1,"source":1,"name":"chorus_squid_1.png"}],"samplers":[{"magFilter":9728,"minFilter":9728,"wrapS":33071,"wrapT":33071},{"magFilter":9728,"minFilter":9728,"wrapS":33071,"wrapT":33071}],"images":[{"mimeType":"image/png","uri":"data:image/png;base64,"},{"mimeType":"image/png","uri":"data:image/png;base64,"}],"meshes":[{"primitives":[{"mode":4,"attributes":{"POSITION":0,"NORMAL":1,"TEXCOORD_0":2},"material":0}]},{"primitives":[{"mode":4,"attributes":{"POSITION":3,"NORMAL":4,"TEXCOORD_0":5},"material":0}]},{"primitives":[{"mode":4,"attributes":{"POSITION":6,"NORMAL":7,"TEXCOORD_0":8},"material":0}]},{"primitives":[{"mode":4,"attributes":{"POSITION":9,"NORMAL":10,"TEXCOORD_0":11},"material":0}]},{"primitives":[{"mode":4,"attributes":{"POSITION":12,"NORMAL":13,"TEXCOORD_0":14},"material":0}]},{"primitives":[{"mode":4,"attributes":{"POSITION":15,"NORMAL":16,"TEXCOORD_0":17},"material":0}]},{"primitives":[{"mode":4,"attributes":{"POSITION":18,"NORMAL":19,"TEXCOORD_0":20},"material":0}]},{"primitives":[{"mode":4,"attributes":{"POSITION":21,"NORMAL":22,"TEXCOORD_0":23},"material":1}]},{"primitives":[{"mode":4,"attributes":{"POSITION":24,"NORMAL":25,"TEXCOORD_0":26},"material":1}]},{"primitives":[{"mode":4,"attributes":{"POSITION":27,"NORMAL":28,"TEXCOORD_0":29},"material":1}]},{"primitives":[{"mode":4,"attributes":{"POSITION":30,"NORMAL":31,"TEXCOORD_0":32},"material":1}]},{"primitives":[{"mode":4,"attributes":{"POSITION":33,"NORMAL":34,"TEXCOORD_0":35},"material":1}]},{"primitives":[{"mode":4,"attributes":{"POSITION":36,"NORMAL":37,"TEXCOORD_0":38},"material":1}]},{"primitives":[{"mode":4,"attributes":{"POSITION":39,"NORMAL":40,"TEXCOORD_0":41},"material":1}]}]}