<?xml version="1.0" encoding="UTF-8" standalone="no"?> <!-- Created with Vectornator for iOS (http://vectornator.io/) --><!DOCTYPE svg PUBLIC "-//W3C//DTD SVG 1.1//EN" "http://www.w3.org/Graphics/SVG/1.1/DTD/svg11.dtd">
<svg height="100%" style="fill-rule:evenodd;clip-rule:evenodd;stroke-linecap:round;stroke-linejoin:round;" xmlns:xlink="http://www.w3.org/1999/xlink" xmlns="http://www.w3.org/2000/svg" xml:space="preserve" width="100%" xmlns:vectornator="http://vectornator.io" version="1.1" viewBox="0 0 300 300">
<metadata>
<vectornator:setting key="Units" value="Points"/>
<vectornator:setting key="GuidesVisible" value="1"/>
<vectornator:setting key="RulersVisible" value="1"/>
<vectornator:setting key="SnapToGuides" value="1"/>
<vectornator:setting key="DynamicGuides" value="1"/>
</metadata>
<defs/>
<g id="ewrjrtm74fag2" vectornator:layerName="ewrjrtm74fag2">
<path d="M55.448+43.1275C55.448+43.9275+53.848+57.7275+51.948+73.6275C50.048+89.5275+48.448+104.128+48.448+106.028C48.448+109.328+48.648+109.528+54.248+111.328C61.348+113.728+62.448+115.628+62.448+125.928L61.848+133.128L66.248+133.428L69.948+133.128L69.948+94.1275C69.948+72.6275+69.548+53.5275+69.148+51.5275C68.548+48.4275+67.548+47.4275+62.548+44.7275C55.848+41.1275+55.448+41.1275+55.448+43.1275ZM66.848+52.5275C67.748+57.9275+67.448+127.828+66.448+130.128C65.748+132.028+65.648+131.928+65.148+129.628C64.848+128.228+64.348+124.228+64.148+120.728C63.748+113.328+62.048+111.328+54.748+109.328C51.648+108.528+50.448+107.728+50.448+106.328C50.448+104.328+52.148+90.1275+55.448+63.3275C56.548+54.6275+57.448+46.8275+57.448+46.1275C57.448+44.9275+58.348+45.1275+61.848+46.8275C65.548+48.6275+66.348+49.5275+66.848+52.5275Z" opacity="1" fill="#000000"/>
<path d="M112.207+88.9818C102.107+91.1259+91.9072+95.9734+80.1072+104.363C74.7072+108.185+73.2072+110.05+75.4072+110.05C76.0072+110.05+77.3072+109.584+78.4072+108.931C80.0072+107.999+83.1072+108.279+95.1072+110.516C116.607+114.618+128.807+114.431+148.707+109.77L163.507+106.321L167.232+108.092C171.21+110.375+174.402+111.914+174.402+110.516C174.402+110.05+171.053+108.19+168.995+106.328C166.595+105.209+161.607+102.312+157.607+100.075C137.507+88.7022+126.707+86.092+112.207+88.9818ZM109.907+93.8293C106.807+98.1175+106.607+103.711+109.507+108.092L111.507+111.169L109.207+110.702C107.907+110.423+101.407+109.304+94.7072+108.092C85.6072+106.507+82.7072+105.668+83.4072+104.829C85.2072+102.872+96.7072+96.7192+104.407+93.5497C108.507+91.8717+112.007+90.4734+112.107+90.4734C112.207+90.4734+111.207+91.9649+109.907+93.8293ZM128.307+92.8971C134.307+97.5582+134.107+105.296+127.907+109.863C120.207+115.55+108.007+108.279+109.907+99.0497C111.507+91.1259+121.707+87.6767+128.307+92.8971ZM136.607+92.431C142.607+94.5751+160.407+103.524+160.407+104.363C160.407+104.643+154.007+106.321+146.107+108.092C138.307+109.77+131.207+111.448+130.407+111.728C129.607+112.007+130.407+110.702+132.207+108.838C136.907+103.711+136.607+98.1175+131.107+92.5242C128.607+90.0073+129.807+89.9141+136.607+92.431Z" opacity="1" fill="#000000"/>
<g opacity="1">
<path d="M167.912+110.38C166.212+111.08+162.412+113.68+159.512+116.18L154.112+120.88L157.312+122.48C161.312+124.48+162.012+125.88+163.912+135.28C165.912+145.18+166.512+146.68+172.512+156.38C180.812+170.18+183.112+184.28+177.812+190.28C177.012+191.18+174.112+192.18+171.412+192.58C166.312+193.28+161.412+196.28+162.812+197.78C163.812+198.68+200.812+199.58+203.112+198.68C205.312+197.78+203.612+195.28+199.912+194.08C196.012+192.78+196.012+192.88+198.112+186.68C199.612+182.18+199.612+180.78+198.012+176.78C197.412+175.28+198.112+175.08+205.812+175.08C210.412+175.08+216.312+174.78+218.912+174.48C222.812+173.88+223.512+173.48+223.512+171.58C223.512+168.88+210.012+148.28+204.112+142.08C201.812+139.58+198.612+135.78+197.012+133.58C189.112+122.68+174.48+108.091+171.412+109.328C170.835+108.857+169.612+109.78+167.912+110.38ZM176.012+113.68C179.012+115.18+194.912+133.78+196.712+137.58C197.412+139.28+197.312+140.58+196.112+142.88C194.312+146.38+190.312+147.68+186.012+146.08C182.112+144.58+181.912+145.38+184.912+149.38C187.612+152.88+188.312+156.08+186.412+156.08C182.412+156.08+174.012+145.28+174.712+140.88C175.012+138.48+176.912+137.58+183.812+136.58C189.512+135.68+188.412+133.78+182.612+134.28C175.712+134.98+172.512+137.28+172.512+141.38C172.512+145.38+177.112+152.98+181.412+155.98C185.512+158.88+189.912+158.48+190.312+155.18C190.512+153.88+190.212+152.38+189.612+151.78C187.812+149.98+188.412+149.08+191.312+149.08C194.212+149.08+197.612+146.18+198.912+142.58C199.612+140.78+200.012+140.98+203.612+145.08C205.812+147.58+210.112+153.58+213.212+158.58C216.212+163.48+219.412+168.38+220.312+169.38C221.112+170.28+221.612+171.38+221.212+171.68C220.912+171.98+214.712+172.38+207.512+172.38C196.412+172.58+194.512+172.78+194.912+174.08C195.112+174.88+195.812+176.98+196.312+178.58C197.012+180.88+196.812+183.18+195.412+187.58C193.712+193.18+193.612+193.68+195.212+194.78C196.612+195.88+196.012+196.08+191.412+195.98C187.612+195.98+186.612+195.68+188.012+195.08C189.212+194.68+190.512+193.68+191.112+192.98C192.212+191.48+195.512+183.08+195.512+181.78C195.512+181.28+193.312+178.58+190.612+175.78C178.112+162.48+169.112+147.38+166.412+134.88C165.112+128.88+163.612+124.78+162.212+123.18L160.012+120.78L162.312+121.38C164.412+121.88+164.512+121.68+163.912+118.58C163.412+115.68+163.612+115.08+166.212+113.68C169.812+111.78+172.412+111.78+176.012+113.68ZM183.812+171.98C186.212+176.08+185.912+182.68+183.012+188.78C181.312+192.58+180.012+194.08+178.612+194.08C177.512+194.08+176.312+194.48+176.012+195.08C175.712+195.58+173.512+196.08+171.212+195.98L167.012+195.88L172.512+194.48C175.712+193.58+178.912+191.98+180.212+190.58C183.112+187.28+183.912+180.78+182.212+174.28C180.612+168.48+181.212+167.58+183.812+171.98ZM190.912+179.78C193.212+182.48+193.212+182.68+191.712+186.58C189.712+191.88+188.912+192.78+186.012+193.38C183.012+193.88+182.912+193.18+185.512+187.98C186.612+185.78+187.612+182.48+187.712+180.58C187.812+178.68+188.012+177.08+188.212+177.08C188.412+177.08+189.712+178.28+190.912+179.78Z" opacity="1" fill="#000000"/>
<path d="M168.457+118.581C167.057+119.381+166.857+119.981+167.857+121.081C169.157+122.681+172.357+122.981+173.257+121.481C173.957+120.381+172.157+117.481+170.857+117.481C170.557+117.481+169.457+117.981+168.457+118.581Z" opacity="1" fill="#000000"/>
</g>
<path d="M61.848+133.715C61.848+134.136+71.913+141.421+78.4072+149.215C106.519+183.233+108.304+179.494+117.378+211.828C120.225+221.623+123.517+231.523+124.762+233.629C129.833+242.371+141.931+251.639+152.785+255.114C159.012+257.01+170.488+257.01+174.402+255.114C178.939+252.903+185.522+244.477+188.992+236.578C190.682+232.787+193.173+227.731+194.596+225.203C194.773+224.897+207.122+201.082+203.957+196.774C200.792+192.465+197.948+197.48+197.948+197.48L192.467+220.642L186.856+233.945C183.031+242.371+177.694+249.427+173.157+251.955C169.064+254.272+156.165+253.429+148.87+250.375C138.106+245.952+126.452+234.05+124.94+225.941C123.161+216.673+116.756+196.872+112.041+186.024C104.5+169.667+88.7771+154.871+69.948+133.128C59.1687+129.011+62.4891+135.08+61.848+133.715Z" opacity="1" fill="#000000"/>
</g>
</svg>
