{"accessors" : [{"bufferView" : 0, "byteOffset" : 0, "componentType" : 5123, "count" : 618, "type" : "SCALAR", "max" : [511], "min" : [0]}, {"bufferView" : 1, "byteOffset" : 0, "componentType" : 5126, "count" : 512, "type" : "VEC3", "max" : [0.05026422441005707, 0.6679967045783997, 0.07023923099040985], "min" : [0.011953478679060936, 0.6297445893287659, 0.05119844153523445], "name" : "POSITION"}, {"bufferView" : 1, "byteOffset" : 12, "componentType" : 5126, "count" : 512, "type" : "VEC3", "max" : [0.9406022429466248, 0.9512296319007874, 1.0000042915344238], "min" : [-0.9471263885498047, -0.9485191702842712, -1.0000042915344238], "name" : "NORMAL"}, {"bufferView" : 1, "byteOffset" : 24, "componentType" : 5126, "count" : 512, "type" : "VEC2", "max" : [0.9646214246749878, 0.9818061590194702], "min" : [0.019903719425201416, 0.020990610122680664], "name" : "TEXCOORD_0"}, {"bufferView" : 0, "byteOffset" : 1236, "componentType" : 5123, "count" : 618, "type" : "SCALAR", "max" : [514], "min" : [0]}, {"bufferView" : 2, "byteOffset" : 0, "componentType" : 5126, "count" : 515, "type" : "VEC3", "max" : [-0.012221341952681541, 0.6680358052253723, 0.07023926824331284], "min" : [-0.05037979036569595, 0.629705011844635, 0.05119847506284714], "name" : "POSITION"}, {"bufferView" : 2, "byteOffset" : 12, "componentType" : 5126, "count" : 515, "type" : "VEC3", "max" : [0.9310681819915771, 0.9478599429130554, 1.0000042915344238], "min" : [-0.9491589069366455, -0.9364736080169678, -1.0000042915344238], "name" : "NORMAL"}, {"bufferView" : 2, "byteOffset" : 24, "componentType" : 5126, "count" : 515, "type" : "VEC2", "max" : [0.9585750699043274, 0.966354489326477], "min" : [0.006885886192321777, 0.022762417793273926], "name" : "TEXCOORD_0"}, {"bufferView" : 0, "byteOffset" : 2472, "componentType" : 5123, "count" : 3186, "type" : "SCALAR", "max" : [2426], "min" : [0]}, {"bufferView" : 3, "byteOffset" : 0, "componentType" : 5126, "count" : 2427, "type" : "VEC3", "max" : [0.09182360768318176, 0.7825791835784912, 0.08986438065767288], "min" : [-0.09030292928218842, 0.5747186541557312, -0.12301551550626755], "name" : "POSITION"}, {"bufferView" : 3, "byteOffset" : 12, "componentType" : 5126, "count" : 2427, "type" : "VEC3", "max" : [0.9991284012794495, 0.9989978671073914, 0.9942097663879395], "min" : [-0.9998416304588318, -0.9941778182983398, -0.9941504001617432], "name" : "NORMAL"}, {"bufferView" : 3, "byteOffset" : 24, "componentType" : 5126, "count" : 2427, "type" : "VEC2", "max" : [0.9493653178215027, 0.9903426170349121], "min" : [0.019999999552965164, 0.020000040531158447], "name" : "TEXCOORD_0"}, {"bufferView" : 0, "byteOffset" : 8844, "componentType" : 5123, "count" : 10344, "type" : "SCALAR", "max" : [8730], "min" : [0]}, {"bufferView" : 4, "byteOffset" : 0, "componentType" : 5126, "count" : 8731, "type" : "VEC3", "max" : [0.8336747288703918, 0.3603891432285309, 0.09627869725227356], "min" : [-0.8336747288703918, 0.31057631969451904, -0.04603327065706253], "name" : "POSITION"}, {"bufferView" : 4, "byteOffset" : 12, "componentType" : 5126, "count" : 8731, "type" : "VEC3", "max" : [0.9994828701019287, 0.999745786190033, 0.9974438548088074], "min" : [-0.9994829893112183, -0.9997031688690186, -0.9974484443664551], "name" : "NORMAL"}, {"bufferView" : 4, "byteOffset" : 24, "componentType" : 5126, "count" : 8731, "type" : "VEC2", "max" : [0.968315601348877, 0.9907870292663574], "min" : [0.46754491329193115, 0.4208555221557617], "name" : "TEXCOORD_0"}, {"bufferView" : 0, "byteOffset" : 29532, "componentType" : 5123, "count" : 12282, "type" : "SCALAR", "max" : [9714], "min" : [0]}, {"bufferView" : 5, "byteOffset" : 0, "componentType" : 5126, "count" : 9715, "type" : "VEC3", "max" : [0.09579431265592575, 0.7565532922744751, 0.1021345928311348], "min" : [-0.09610731154680252, 0.44407498836517334, -0.12157762050628662], "name" : "POSITION"}, {"bufferView" : 5, "byteOffset" : 12, "componentType" : 5126, "count" : 9715, "type" : "VEC3", "max" : [0.9997547268867493, 0.998656690120697, 0.9999867081642151], "min" : [-0.9992941617965698, -0.999931812286377, -0.9999896287918091], "name" : "NORMAL"}, {"bufferView" : 5, "byteOffset" : 24, "componentType" : 5126, "count" : 9715, "type" : "VEC2", "max" : [0.9943000078201294, 0.9807000160217285], "min" : [0.004999999888241291, 0.004350006580352783], "name" : "TEXCOORD_0"}, {"bufferView" : 0, "byteOffset" : 54096, "componentType" : 5123, "count" : 1701, "type" : "SCALAR", "max" : [1361], "min" : [0]}, {"bufferView" : 6, "byteOffset" : 0, "componentType" : 5126, "count" : 1362, "type" : "VEC3", "max" : [0.11545175313949585, 0.5644998550415039, 0.04842299595475197], "min" : [-0.11578022688627243, 0.39392372965812683, -0.13505002856254578], "name" : "POSITION"}, {"bufferView" : 6, "byteOffset" : 12, "componentType" : 5126, "count" : 1362, "type" : "VEC3", "max" : [0.9939755201339722, 0.9990893006324768, 0.999016284942627], "min" : [-0.9985092282295227, -0.987530529499054, -0.9128198623657227], "name" : "NORMAL"}, {"bufferView" : 6, "byteOffset" : 24, "componentType" : 5126, "count" : 1362, "type" : "VEC2", "max" : [0.9181128740310669, 0.979159414768219], "min" : [0.014290831983089447, 0.01619178056716919], "name" : "TEXCOORD_0"}, {"bufferView" : 0, "byteOffset" : 57500, "componentType" : 5123, "count" : 300, "type" : "SCALAR", "max" : [238], "min" : [0]}, {"bufferView" : 7, "byteOffset" : 0, "componentType" : 5126, "count" : 239, "type" : "VEC3", "max" : [0.028416341170668602, 0.6013659834861755, 0.08446522802114487], "min" : [-0.028416341170668602, 0.5660297870635986, 0.016723984852433205], "name" : "POSITION"}, {"bufferView" : 7, "byteOffset" : 12, "componentType" : 5126, "count" : 239, "type" : "VEC3", "max" : [0.9971718192100525, 0.8844408392906189, 0.9995853900909424], "min" : [-0.9971718192100525, -0.9782931208610535, -0.7954946160316467], "name" : "NORMAL"}, {"bufferView" : 7, "byteOffset" : 24, "componentType" : 5126, "count" : 239, "type" : "VEC2", "max" : [0.9808249473571777, 0.983213484287262], "min" : [0.051069796085357666, 0.02829587459564209], "name" : "TEXCOORD_0"}], "asset" : {"generator" : "Aspose.3D 21.11", "version" : "2.0"}, "buffers" : [{"uri" : "data:application/octet-stream;base64,", "byteLength" : 987700}], "bufferViews" : [{"buffer" : 0, "byteOffset" : 0, "byteLength" : 58100, "target" : 34963}, {"buffer" : 0, "byteOffset" : 58104, "byteLength" : 19776, "byteStride" : 32, "target" : 34962}, {"buffer" : 0, "byteOffset" : 77884, "byteLength" : 19776, "byteStride" : 32, "target" : 34962}, {"buffer" : 0, "byteOffset" : 97664, "byteLength" : 101952, "byteStride" : 32, "target" : 34962}, {"buffer" : 0, "byteOffset" : 199620, "byteLength" : 331008, "byteStride" : 32, "target" : 34962}, {"buffer" : 0, "byteOffset" : 530632, "byteLength" : 393024, "byteStride" : 32, "target" : 34962}, {"buffer" : 0, "byteOffset" : 923660, "byteLength" : 54432, "byteStride" : 32, "target" : 34962}, {"buffer" : 0, "byteOffset" : 978096, "byteLength" : 9600, "byteStride" : 32, "target" : 34962}], "images" : [{"uri" : "data:image/jpeg;base64,"}, {"uri" : "data:image/png;base64,"}, {"uri" : "data:image/jpeg;base64,"}, {"uri" : "data:image/jpeg;base64,"}, {"uri" : "data:image/png;base64,"}, {"uri" : "data:image/jpeg;base64,"}], "materials" : [{"name" : "Wolf3D_Eye", "pbrMetallicRoughness" : {"baseColorFactor" : [1, 1, 1, 1], "baseColorTexture" : {"index" : 0, "texCoord" : 0}, "metallicFactor" : 0, "roughnessFactor" : 1}, "emissiveFactor" : [0, 0, 0], "alphaMode" : "OPAQUE", "doubleSided" : true}, {"name" : "Wolf3D_Eye", "pbrMetallicRoughness" : {"baseColorFactor" : [1, 1, 1, 1], "baseColorTexture" : {"index" : 0, "texCoord" : 0}, "metallicFactor" : 0, "roughnessFactor" : 1}, "emissiveFactor" : [0, 0, 0], "alphaMode" : "OPAQUE", "doubleSided" : true}, {"name" : "Wolf3D_Hair", "pbrMetallicRoughness" : {"baseColorFactor" : [1, 1, 1, 1], "baseColorTexture" : {"index" : 2, "texCoord" : 0}, "metallicFactor" : 0, "roughnessFactor" : 0.8636363744735718}, "normalTexture" : {"index" : 1, "texCoord" : 0, "scale" : 1}, "emissiveFactor" : [0, 0, 0], "alphaMode" : "OPAQUE", "doubleSided" : true}, {"name" : "Wolf3D_Skin", "pbrMetallicRoughness" : {"baseColorFactor" : [1, 1, 1, 1], "baseColorTexture" : {"index" : 3, "texCoord" : 0}, "metallicFactor" : 0, "roughnessFactor" : 0.699999988079071}, "emissiveFactor" : [0, 0, 0], "alphaMode" : "OPAQUE", "doubleSided" : true}, {"name" : "Wolf3D_Skin", "pbrMetallicRoughness" : {"baseColorFactor" : [1, 1, 1, 1], "baseColorTexture" : {"index" : 3, "texCoord" : 0}, "metallicFactor" : 0, "roughnessFactor" : 0.699999988079071}, "emissiveFactor" : [0, 0, 0], "alphaMode" : "OPAQUE", "doubleSided" : true}, {"name" : "Wolf3D_Shirt", "pbrMetallicRoughness" : {"baseColorFactor" : [1, 1, 1, 1], "baseColorTexture" : {"index" : 4, "texCoord" : 0}, "metallicFactor" : 0, "roughnessFactor" : 1}, "emissiveFactor" : [0, 0, 0], "alphaMode" : "OPAQUE", "doubleSided" : true}, {"name" : "Wolf3D_Teeth", "pbrMetallicRoughness" : {"baseColorFactor" : [1, 1, 1, 1], "baseColorTexture" : {"index" : 5, "texCoord" : 0}, "metallicFactor" : 0, "roughnessFactor" : 1}, "emissiveFactor" : [0, 0, 0], "alphaMode" : "OPAQUE", "doubleSided" : true}], "meshes" : [{"primitives" : [{"attributes" : {"POSITION" : 1, "NORMAL" : 2, "TEXCOORD_0" : 3}, "indices" : 0, "material" : 0, "mode" : 4}]}, {"primitives" : [{"attributes" : {"POSITION" : 5, "NORMAL" : 6, "TEXCOORD_0" : 7}, "indices" : 4, "material" : 1, "mode" : 4}]}, {"primitives" : [{"attributes" : {"POSITION" : 9, "NORMAL" : 10, "TEXCOORD_0" : 11}, "indices" : 8, "material" : 2, "mode" : 4}]}, {"primitives" : [{"attributes" : {"POSITION" : 13, "NORMAL" : 14, "TEXCOORD_0" : 15}, "indices" : 12, "material" : 3, "mode" : 4}]}, {"primitives" : [{"attributes" : {"POSITION" : 17, "NORMAL" : 18, "TEXCOORD_0" : 19}, "indices" : 16, "material" : 4, "mode" : 4}]}, {"primitives" : [{"attributes" : {"POSITION" : 21, "NORMAL" : 22, "TEXCOORD_0" : 23}, "indices" : 20, "material" : 5, "mode" : 4}]}, {"primitives" : [{"attributes" : {"POSITION" : 25, "NORMAL" : 26, "TEXCOORD_0" : 27}, "indices" : 24, "material" : 6, "mode" : 4}]}], "nodes" : [{"mesh" : 0, "name" : "EyeLeft"}, {"mesh" : 1, "name" : "EyeRight"}, {"mesh" : 2, "name" : "Wolf3D_Hair"}, {"mesh" : 3, "name" : "Wolf3D_Hands"}, {"mesh" : 4, "name" : "Wolf3D_Head"}, {"mesh" : 5, "name" : "Wolf3D_Shirt"}, {"mesh" : 6, "name" : "Wolf3D_Teeth"}, {"children" : [0, 1, 2, 3, 4, 5, 6], "name" : "AvatarRoot"}], "samplers" : [{"magFilter" : 9729, "minFilter" : 9986, "wrapS" : 10497, "wrapT" : 10497}, {"magFilter" : 9729, "minFilter" : 9986, "wrapS" : 10497, "wrapT" : 10497}, {"magFilter" : 9729, "minFilter" : 9986, "wrapS" : 10497, "wrapT" : 10497}, {"magFilter" : 9729, "minFilter" : 9986, "wrapS" : 10497, "wrapT" : 10497}, {"magFilter" : 9729, "minFilter" : 9986, "wrapS" : 10497, "wrapT" : 10497}, {"magFilter" : 9729, "minFilter" : 9986, "wrapS" : 10497, "wrapT" : 10497}], "scene" : 0, "scenes" : [{"nodes" : [7]}], "textures" : [{"sampler" : 0, "source" : 0}, {"sampler" : 1, "source" : 1}, {"sampler" : 2, "source" : 2}, {"sampler" : 3, "source" : 3}, {"sampler" : 4, "source" : 4}, {"sampler" : 5, "source" : 5}]}