{"asset":{"generator":"3D Builder","version":"2.0"},"scene":0,"scenes":[{"nodes":[0]}],"nodes":[{"mesh":0,"matrix":[1,0,0,0,0,-1.1920928955078125E-7,-0.99999988079071045,0,0,0.99999988079071045,-1.1920928955078125E-7,0,0.00085687596583738923,-1.8681023394861995E-9,0.015579216182231903,1]}],"meshes":[{"primitives":[{"attributes":{"POSITION":0},"mode":4,"indices":1,"material":0}]}],"materials":[{"name":"Metallic","pbrMetallicRoughness":{"baseColorFactor":[0.0015176349552348256,0.36130687594413757,0.80695235729217529,1],"metallicFactor":1,"roughnessFactor":0},"alphaMode":"OPAQUE"}],"accessors":[{"bufferView":0,"byteOffset":0,"count":7316,"componentType":5126,"type":"VEC3","min":[-0.073771841824054718,-0.072314217686653137,3.7252902984619141E-9],"max":[0.072085365653038025,0.10345342010259628,0.13881547749042511]},{"bufferView":1,"byteOffset":0,"count":43836,"componentType":5125,"type":"SCALAR"}],"bufferViews":[{"buffer":0,"byteOffset":0,"byteLength":87792,"byteStride":12,"target":34962},{"buffer":0,"byteOffset":87792,"byteLength":175344,"target":34963}],"buffers":[{"byteLength":263136,"uri":"BrainModel-Simplified.bin"}]}